<?xml version="1.0" ?><svg viewBox="0 0 64 64" xmlns="http://www.w3.org/2000/svg"><defs><style>.cls-1,.cls-2{fill:none;}.cls-1,.cls-2,.cls-3{stroke:#000;stroke-linejoin:round;stroke-width:2px;}.cls-1,.cls-3{stroke-linecap:round;}.cls-3{fill:#9dc1e4;}</style></defs><g id="online-concert"><line class="cls-1" x1="50.5858" x2="53.4142" y1="47.5858" y2="50.4142"/><line class="cls-1" x1="53.4142" x2="50.5858" y1="47.5858" y2="50.4142"/><polyline class="cls-1" points="42.242 41 57 41 57 8 7 8 7 41 20.744 41"/><path class="cls-1" d="M42,43.701V39.0251h0A6.0251,6.0251,0,0,0,35.9749,33h-8.95A6.0251,6.0251,0,0,0,21,39.0251h0V43.701"/><path class="cls-1" d="M34,32.7485V29.5a6.5007,6.5007,0,0,0,4-6V18.4053A2.4052,2.4052,0,0,0,35.5947,16H35v-.0535A2.9465,2.9465,0,0,0,32.0535,13h-3.312A3.7415,3.7415,0,0,0,25,16.7415V23.5a6.5007,6.5007,0,0,0,4,6v3.1973"/><path class="cls-2" d="M25,19.5A6.5,6.5,0,0,0,31.5,26h0A6.5,6.5,0,0,0,38,19.5"/><polyline class="cls-3" points="24 40 25 41 25 43.752"/><polyline class="cls-3" points="39 40 38 41 38 43.752"/><path class="cls-1" d="M16,59V54a2,2,0,0,1,2-2h0a2,2,0,0,1,2,2V44H43V54a2,2,0,0,1,2-2h0a2,2,0,0,1,2,2v5"/><ellipse class="cls-1" cx="46.5" cy="22" rx="2.5" ry="2"/><path class="cls-1" d="M49,22V12s4,2,3,4"/><ellipse class="cls-1" cx="14.5" cy="31" rx="2.5" ry="2"/><path class="cls-1" d="M17,31V21s4,2,3,4"/><circle cx="15.8333" cy="16.0346" r="1.0691"/><circle cx="42.8333" cy="30.0346" r="1.0691"/><circle cx="42.8333" cy="14.0346" r="1.0691"/><circle cx="51.8333" cy="31.0346" r="1.0691"/><circle cx="11.8333" cy="25.0346" r="1.0691"/><line class="cls-2" x1="7" x2="21" y1="38" y2="38"/><line class="cls-2" x1="42" x2="57" y1="38" y2="38"/></g></svg>