<?xml version="1.0" ?><svg viewBox="0 0 512 512" xmlns="http://www.w3.org/2000/svg"><title/><g id="Loy_Kratong_Festival"><path d="M93.85,351.59c-2.31,0-3.38-1.07-4.87-2.55-1.65-1.65-3.72-3.71-7.68-3.71s-6,2.06-7.69,3.71c-1.48,1.48-2.55,2.55-4.86,2.55s-3.38-1.07-4.86-2.55c-1.66-1.65-3.73-3.71-7.69-3.71s-6,2.06-7.68,3.71c-1.48,1.48-2.55,2.55-4.86,2.55s-3.38-1.07-4.86-2.55c-1.66-1.65-3.72-3.71-7.69-3.71s-6,2.06-7.68,3.71c-1.48,1.48-2.55,2.55-4.86,2.55s-3.38-1.07-4.86-2.55c-1.66-1.65-3.72-3.71-7.69-3.71v4c2.31,0,3.38,1.07,4.86,2.55,1.66,1.65,3.73,3.71,7.69,3.71s6-2.06,7.68-3.71c1.48-1.48,2.55-2.55,4.86-2.55s3.38,1.07,4.86,2.55c1.66,1.65,3.72,3.71,7.69,3.71s6-2.06,7.68-3.71c1.48-1.48,2.55-2.55,4.86-2.55s3.38,1.07,4.86,2.55c1.66,1.65,3.73,3.71,7.69,3.71s6-2.06,7.69-3.71c1.48-1.48,2.55-2.55,4.86-2.55s3.38,1.07,4.86,2.55c1.66,1.65,3.73,3.71,7.69,3.71s6-2.06,7.69-3.71c1.48-1.48,2.55-2.55,4.86-2.55v-4c-4,0-6,2.06-7.68,3.71C97.23,350.52,96.16,351.59,93.85,351.59Z"/><path d="M93.85,379.09c-2.31,0-3.38-1.07-4.87-2.54-1.65-1.66-3.72-3.71-7.68-3.71s-6,2.05-7.69,3.71c-1.48,1.47-2.55,2.54-4.86,2.54s-3.38-1.07-4.86-2.54c-1.66-1.66-3.73-3.71-7.69-3.71s-6,2.05-7.68,3.71C47,378,46,379.09,43.66,379.09s-3.38-1.07-4.86-2.54c-1.66-1.66-3.72-3.71-7.69-3.71s-6,2.05-7.68,3.71c-1.48,1.47-2.55,2.54-4.86,2.54s-3.38-1.07-4.86-2.54c-1.66-1.66-3.72-3.71-7.69-3.71v4c2.31,0,3.38,1.06,4.86,2.54,1.66,1.65,3.73,3.71,7.69,3.71s6-2.06,7.68-3.71c1.48-1.48,2.55-2.54,4.86-2.54s3.38,1.06,4.86,2.54c1.66,1.65,3.72,3.71,7.69,3.71s6-2.06,7.68-3.71c1.48-1.48,2.55-2.54,4.86-2.54s3.38,1.06,4.86,2.54c1.66,1.65,3.73,3.71,7.69,3.71s6-2.06,7.69-3.71c1.48-1.48,2.55-2.54,4.86-2.54s3.38,1.06,4.86,2.54c1.66,1.65,3.73,3.71,7.69,3.71s6-2.06,7.69-3.71c1.48-1.48,2.55-2.54,4.86-2.54v-4c-4,0-6,2.05-7.68,3.71C97.23,378,96.16,379.09,93.85,379.09Z"/><path d="M93.85,365.34c-2.31,0-3.38-1.07-4.87-2.55-1.65-1.65-3.72-3.71-7.68-3.71s-6,2.06-7.69,3.71c-1.48,1.48-2.55,2.55-4.86,2.55s-3.38-1.07-4.86-2.55c-1.66-1.65-3.73-3.71-7.69-3.71s-6,2.06-7.68,3.71c-1.48,1.48-2.55,2.55-4.86,2.55s-3.38-1.07-4.86-2.55c-1.66-1.65-3.72-3.71-7.69-3.71s-6,2.06-7.68,3.71c-1.48,1.48-2.55,2.55-4.86,2.55s-3.38-1.07-4.86-2.55c-1.66-1.65-3.72-3.71-7.69-3.71v4c2.31,0,3.38,1.07,4.86,2.55,1.66,1.65,3.73,3.71,7.69,3.71s6-2.06,7.68-3.71c1.48-1.48,2.55-2.55,4.86-2.55s3.38,1.07,4.86,2.55c1.66,1.65,3.72,3.71,7.69,3.71s6-2.06,7.68-3.71c1.48-1.48,2.55-2.55,4.86-2.55s3.38,1.07,4.86,2.55c1.66,1.65,3.73,3.71,7.69,3.71s6-2.06,7.69-3.71c1.48-1.48,2.55-2.55,4.86-2.55s3.38,1.07,4.86,2.55c1.66,1.65,3.73,3.71,7.69,3.71s6-2.06,7.69-3.71c1.48-1.48,2.55-2.55,4.86-2.55v-4c-4,0-6,2.06-7.68,3.71C97.23,364.27,96.16,365.34,93.85,365.34Z"/><path d="M93.85,392.84c-2.31,0-3.38-1.07-4.87-2.54-1.65-1.66-3.72-3.71-7.68-3.71s-6,2.06-7.69,3.71c-1.48,1.47-2.55,2.54-4.86,2.54s-3.38-1.07-4.86-2.54c-1.66-1.66-3.73-3.71-7.69-3.71s-6,2.06-7.68,3.71c-1.48,1.47-2.55,2.54-4.86,2.54s-3.38-1.07-4.86-2.54c-1.66-1.65-3.72-3.71-7.69-3.71s-6,2.06-7.68,3.71c-1.48,1.47-2.55,2.54-4.86,2.54s-3.38-1.07-4.86-2.54c-1.66-1.66-3.72-3.71-7.69-3.71v4c2.31,0,3.38,1.06,4.86,2.54,1.66,1.65,3.73,3.71,7.69,3.71s6-2.06,7.68-3.71c1.48-1.48,2.55-2.54,4.86-2.54s3.38,1.06,4.86,2.54c1.66,1.65,3.72,3.71,7.69,3.71s6-2.06,7.68-3.71c1.48-1.48,2.55-2.54,4.86-2.54s3.38,1.06,4.86,2.54c1.66,1.65,3.73,3.71,7.69,3.71s6-2.06,7.69-3.71c1.48-1.48,2.55-2.54,4.86-2.54s3.38,1.06,4.86,2.54c1.66,1.65,3.73,3.71,7.69,3.71s6-2.06,7.69-3.71c1.48-1.48,2.55-2.54,4.86-2.54v-4c-4,0-6,2.05-7.68,3.71C97.23,391.77,96.16,392.84,93.85,392.84Z"/><path d="M498.29,349c-1.48,1.48-2.56,2.55-4.87,2.55s-3.38-1.07-4.86-2.55c-1.66-1.65-3.73-3.71-7.69-3.71s-6,2.06-7.69,3.71c-1.48,1.48-2.55,2.55-4.86,2.55s-3.38-1.07-4.86-2.55c-1.66-1.65-3.72-3.71-7.69-3.71s-6,2.06-7.68,3.71c-1.48,1.48-2.55,2.55-4.86,2.55s-3.38-1.07-4.86-2.55c-1.66-1.65-3.72-3.71-7.68-3.71s-6,2.06-7.69,3.71c-1.48,1.48-2.55,2.55-4.86,2.55s-3.38-1.07-4.86-2.55c-1.66-1.65-3.72-3.71-7.68-3.71v4c2.31,0,3.38,1.07,4.86,2.55,1.65,1.65,3.72,3.71,7.68,3.71s6-2.06,7.69-3.71c1.48-1.48,2.55-2.55,4.86-2.55s3.38,1.07,4.86,2.55c1.65,1.65,3.72,3.71,7.68,3.71s6-2.06,7.68-3.71c1.48-1.48,2.55-2.55,4.86-2.55s3.38,1.07,4.87,2.55c1.66,1.65,3.72,3.71,7.68,3.71s6-2.06,7.69-3.71c1.48-1.48,2.55-2.55,4.86-2.55s3.38,1.07,4.86,2.55c1.66,1.65,3.73,3.71,7.69,3.71s6-2.06,7.69-3.71c1.48-1.48,2.55-2.55,4.87-2.55v-4C502,345.33,500,347.39,498.29,349Z"/><path d="M493.42,379.09c-2.31,0-3.38-1.07-4.86-2.54-1.66-1.66-3.73-3.71-7.69-3.71s-6,2.05-7.69,3.71c-1.48,1.47-2.55,2.54-4.86,2.54s-3.38-1.07-4.86-2.54c-1.66-1.66-3.72-3.71-7.69-3.71s-6,2.05-7.68,3.71c-1.48,1.47-2.55,2.54-4.86,2.54s-3.38-1.07-4.86-2.54c-1.66-1.66-3.72-3.71-7.68-3.71s-6,2.05-7.69,3.71c-1.48,1.47-2.55,2.54-4.86,2.54s-3.38-1.07-4.86-2.54c-1.66-1.66-3.72-3.71-7.68-3.71v4c2.31,0,3.38,1.06,4.86,2.54,1.65,1.65,3.72,3.71,7.68,3.71s6-2.06,7.69-3.71c1.48-1.48,2.55-2.54,4.86-2.54s3.38,1.06,4.86,2.54c1.65,1.65,3.72,3.71,7.68,3.71s6-2.06,7.68-3.71c1.48-1.48,2.55-2.54,4.86-2.54s3.38,1.06,4.87,2.54c1.66,1.65,3.72,3.71,7.68,3.71s6-2.06,7.69-3.71c1.48-1.48,2.55-2.54,4.86-2.54s3.38,1.06,4.86,2.54c1.66,1.65,3.73,3.71,7.69,3.71s6-2.06,7.69-3.71c1.48-1.48,2.55-2.54,4.87-2.54v-4c-4,0-6,2.05-7.69,3.71C496.81,378,495.73,379.09,493.42,379.09Z"/><path d="M493.42,365.34c-2.31,0-3.38-1.07-4.86-2.55-1.66-1.65-3.73-3.71-7.69-3.71s-6,2.06-7.69,3.71c-1.48,1.48-2.55,2.55-4.86,2.55s-3.38-1.07-4.86-2.55c-1.66-1.65-3.72-3.71-7.69-3.71s-6,2.06-7.68,3.71c-1.48,1.48-2.55,2.55-4.86,2.55s-3.38-1.07-4.86-2.55c-1.66-1.65-3.72-3.71-7.68-3.71s-6,2.06-7.69,3.71c-1.48,1.48-2.55,2.55-4.86,2.55s-3.38-1.07-4.86-2.55c-1.66-1.65-3.72-3.71-7.68-3.71v4c2.31,0,3.38,1.07,4.86,2.55,1.65,1.65,3.72,3.71,7.68,3.71s6-2.06,7.69-3.71c1.48-1.48,2.55-2.55,4.86-2.55s3.38,1.07,4.86,2.55c1.65,1.65,3.72,3.71,7.68,3.71s6-2.06,7.68-3.71c1.48-1.48,2.55-2.55,4.86-2.55s3.38,1.07,4.87,2.55c1.66,1.65,3.72,3.71,7.68,3.71s6-2.06,7.69-3.71c1.48-1.48,2.55-2.55,4.86-2.55s3.38,1.07,4.86,2.55c1.66,1.65,3.73,3.71,7.69,3.71s6-2.06,7.69-3.71c1.48-1.48,2.55-2.55,4.87-2.55v-4c-4,0-6,2.06-7.69,3.71C496.81,364.27,495.73,365.34,493.42,365.34Z"/><path d="M493.42,392.84c-2.31,0-3.38-1.07-4.86-2.54-1.66-1.66-3.73-3.71-7.69-3.71s-6,2.05-7.69,3.71c-1.48,1.47-2.55,2.54-4.86,2.54s-3.38-1.07-4.86-2.54c-1.66-1.66-3.72-3.71-7.69-3.71s-6,2.06-7.68,3.71c-1.48,1.47-2.55,2.54-4.86,2.54s-3.38-1.07-4.86-2.54c-1.66-1.65-3.72-3.71-7.68-3.71s-6,2.05-7.69,3.71c-1.48,1.47-2.55,2.54-4.86,2.54s-3.38-1.07-4.86-2.54c-1.66-1.65-3.72-3.71-7.68-3.71v4c2.31,0,3.38,1.06,4.86,2.54,1.65,1.65,3.72,3.71,7.68,3.71s6-2.06,7.69-3.71c1.48-1.48,2.55-2.54,4.86-2.54s3.38,1.06,4.86,2.54c1.65,1.65,3.72,3.71,7.68,3.71s6-2.06,7.68-3.71c1.48-1.48,2.55-2.54,4.86-2.54s3.38,1.06,4.87,2.54c1.66,1.65,3.72,3.71,7.68,3.71s6-2.06,7.69-3.71c1.48-1.48,2.55-2.54,4.86-2.54s3.38,1.06,4.86,2.54c1.66,1.65,3.73,3.71,7.69,3.71s6-2.06,7.69-3.71c1.48-1.48,2.55-2.54,4.87-2.54v-4c-4,0-6,2.05-7.69,3.71C496.81,391.77,495.73,392.84,493.42,392.84Z"/><path d="M352.9,281.83l-19.54-31.77L314,281.57,294.6,250.06l-11,17.81V145.4h-6.75V140a9.88,9.88,0,0,0,7.4-9.74c0-5-6.62-12.18-8-13.58l-1.45-1.53-1.45,1.53c-1.33,1.4-7.95,8.62-7.95,13.58a9.87,9.87,0,0,0,7.4,9.74v5.39h-6.76V266.8L258,253.58v-33.7h-5.93v-19.3h-6.75V158.9h-6.76v-5.39a9.88,9.88,0,0,0,7.41-9.75c0-4.95-6.63-12.18-8-13.57l-1.45-1.53-1.45,1.53c-1.33,1.39-8,8.62-8,13.57a9.88,9.88,0,0,0,7.4,9.75v5.39h-6.75v41.68h-6.75v19.3h-5.82v33.17L197.7,281.57l-19.38-31.51-19.38,31.51-19.38-31.51L118.5,284.28l-.32,83.55h0v4h0v24H393.82v-111l-21.38-34.76ZM370.44,261V311.7l-14.73-26.79Zm-35.08,0,14.74,24L335.36,311.7ZM350.74,292v54.88l-15.1-27.44ZM331.36,261V311.7l-14.74-26.79Zm-15.09,31.63,34.47,62.64v12.61H316ZM296.6,261l14.74,24L296.6,311.7ZM312,292v54.88l-15.1-27.44Zm0,63.18v12.61H277.22l.29-75.25Zm-38.76,0v12.61H238.46l.29-75.25ZM239.1,284.91l14.74-24V311.7Zm19,34.57L273.22,292v54.88Zm21.52-136.87-9.51-9.51V157.82l9.51,9.51Zm0,5.65v15.28L270.13,194V178.75Zm0,20.94v15.28L270.13,215V199.69Zm0,20.93v15.28l-9.51-9.51V220.62Zm0,20.94v15.28l-9.51-9.5V241.56Zm-9.51,11.43,9.51,9.51v2.36l-4.42,7.2-5.09-8.27ZM292.6,261V311.7l-14.74-26.79ZM269.49,130.27c0-2.09,2.81-6.17,5.4-9.21,2.59,3,5.4,7.12,5.4,9.21a5.43,5.43,0,1,1-10.8,0Zm10.15,19.13v12.27l-9.51-9.51V149.4ZM257.84,261l8.29,13.49v.13h.09l6.36,10.34L257.84,311.7Zm-14.75-56.37h5v15.3h-5Zm-11.93-60.82c0-2.08,2.82-6.17,5.4-9.2,2.59,3,5.41,7.12,5.41,9.2a5.72,5.72,0,0,1-5.41,6C233.58,149.74,231.16,147.06,231.16,143.76Zm.65,19.14h9.51v37.68h-9.51Zm7.28,41.68v15.3h-5v-15.3Zm-14,0h5v15.3h-5Zm-5.82,19.3H254v29.17l-17.54,28.52-17.22-28ZM219.08,261l14.73,24L219.08,311.7ZM234.46,292v54.88l-15.1-27.44ZM215.08,261V311.7l-14.74-26.79ZM200,292.58l34.47,62.64v12.61H199.7ZM180.32,261l14.73,24L180.32,311.7ZM195.7,292v54.88l-15.1-27.44ZM176.32,261V311.7l-14.74-26.79Zm-15.09,31.63,34.47,62.64v12.61H160.94ZM141.56,261l14.73,24L141.56,311.7ZM156.94,292v54.88l-15.1-27.44ZM137.56,261V311.7l-14.74-26.79Zm-15.09,31.63,34.47,62.64v12.61H122.18Zm267.35,99.21H122.17v-20H389.82Zm0-24H355.07l.29-75.25,34.46,62.64Zm0-20.91-15.09-27.44L389.82,292Zm-15.38-86,14.74,24L374.44,311.7Z"/></g></svg>