<?xml version="1.0" ?><svg style="enable-background:new 0 0 64 64;" version="1.1" viewBox="0 0 64 64" xml:space="preserve" xmlns="http://www.w3.org/2000/svg" xmlns:xlink="http://www.w3.org/1999/xlink"><style type="text/css">
	.st0{fill:none;stroke:#000000;stroke-width:2;stroke-linecap:round;stroke-linejoin:round;stroke-miterlimit:10;}
	.st1{fill:none;stroke:#000000;stroke-width:2;stroke-linecap:round;stroke-linejoin:round;}
</style><g id="guides"/><g id="_x32_5._checking"/><g id="_x32_4._faucet"/><g id="_x32_3._drink"/><g id="_x32_2._hotel_key"/><g id="_x32_1._rating"/><g id="_x32_0._map"/><g id="_x31_9._wifi"/><g id="_x31_8._swimming_pool"/><g id="_x31_7._booking"/><g id="_x31_6._pasport"/><g id="_x31_5._coffee_cup"/><g id="_x31_4._bathtub"/><g id="_x31_3._bedroom"/><g id="_x31_2._air_conditioner"/><g id="_x31_1._breakfast"/><g id="_x31_0._parking_lot"/><g id="_x39_._room_service"/><g id="_x38_._elevator"/><g id="_x37_._reception"/><g id="_x36_._relax"><path class="st0" d="M29.8300171,38.5799561C29.7800293,39,29.5900269,39.3999634,29.2700195,39.7199707l-3.2600098,3.25   L25.7299805,43.25L13.710022,31.2299805L17.25,27.7000122c0.7800293-0.7800293,2.039978-0.7800293,2.8300171,0l9.1900024,9.1900024   C29.7299805,37.3499756,29.9199829,37.9799805,29.8300171,38.5799561z"/><path class="st0" d="M45.0100098,41.0799561c0,1.3800049-1.1199951,2.5-2.5,2.5h-16.5v-0.6099854l3.2600098-3.25   C29.5900269,39.3999634,29.7800293,39,29.8300171,38.5799561h12.6799927   C43.8900146,38.5799561,45.0100098,39.7000122,45.0100098,41.0799561z"/><path class="st0" d="M8.4081154,22.3934002l0.0000029-0.0000038c0.9763098-0.9763088,2.5592213-0.9763088,3.535531,0   l5.3033028,5.3033028l-3.5355339,3.5355339l-5.3033028-5.3033028C7.4318056,24.9526215,7.4318056,23.369709,8.4081154,22.3934002z"/><ellipse class="st0" cx="17.5" cy="17.5" rx="3.5" ry="3.5" transform="matrix(0.7071068 -0.7071068 0.7071068 0.7071068 -7.2487373 17.5)"/><polygon class="st0" points="5,29 23,47 53,47 53,51 20,51 5,36  "/><polygon class="st0" points="21,51 16,60 21,60 26,51  "/><polygon class="st0" points="53,51 58,60 53,60 48,51  "/><path class="st0" d="M32,13c0-4.9705629,4.029438-9,9-9s9,4.0294371,9,9H32z"/><line class="st0" x1="41" x2="41" y1="13" y2="32"/><line class="st0" x1="32" x2="32" y1="13" y2="16"/><line class="st0" x1="37" x2="37" y1="13" y2="16"/><line class="st0" x1="45" x2="45" y1="13" y2="16"/><line class="st0" x1="50" x2="50" y1="13" y2="16"/></g><g id="_x35_._car_rental"/><g id="_x34_._rental"/><g id="_x33_._smoking_area"/><g id="_x32_._exercise"/><g id="_x31_._luggage"/></svg>